<?xml version="1.0" encoding="UTF-8" standalone="no"?>
<!-- Created with Inkscape (http://www.inkscape.org/) -->

<svg
   width="800"
   height="1100"
   viewBox="0 0 211.66667 291.04167"
   version="1.1"
   id="svg1"
   inkscape:version="1.4.4 (dcaf3e7, 2026-05-05)"
   sodipodi:docname="card-8.svg"
   xmlns:inkscape="http://www.inkscape.org/namespaces/inkscape"
   xmlns:sodipodi="http://sodipodi.sourceforge.net/DTD/sodipodi-0.dtd"
   xmlns="http://www.w3.org/2000/svg"
   xmlns:svg="http://www.w3.org/2000/svg">
  <sodipodi:namedview
     id="namedview1"
     pagecolor="#505050"
     bordercolor="#eeeeee"
     borderopacity="1"
     inkscape:showpageshadow="0"
     inkscape:pageopacity="0"
     inkscape:pagecheckerboard="0"
     inkscape:deskcolor="#505050"
     inkscape:document-units="px"
     inkscape:zoom="0.51981271"
     inkscape:cx="237.58557"
     inkscape:cy="544.42686"
     inkscape:window-width="1702"
     inkscape:window-height="1294"
     inkscape:window-x="3015"
     inkscape:window-y="2043"
     inkscape:window-maximized="0"
     inkscape:current-layer="layer3" />
  <defs
     id="defs1">
    <rect
       x="269.32777"
       y="465.55229"
       width="378.98265"
       height="584.82602"
       id="rect5" />
    <rect
       x="119.27373"
       y="323.19333"
       width="492.48508"
       height="238.54745"
       id="rect2" />
    <rect
       x="119.27373"
       y="323.19333"
       width="492.48508"
       height="238.54745"
       id="rect3" />
    <rect
       x="119.27373"
       y="323.19333"
       width="492.48508"
       height="238.54745"
       id="rect2-1" />
    <rect
       x="119.27373"
       y="323.19333"
       width="492.48508"
       height="238.54745"
       id="rect3-5" />
    <rect
       x="119.27373"
       y="323.19333"
       width="492.48508"
       height="238.54745"
       id="rect4" />
    <rect
       x="269.32776"
       y="465.55228"
       width="378.98264"
       height="584.82605"
       id="rect5-0" />
    <rect
       x="269.32776"
       y="465.55228"
       width="378.98264"
       height="584.82605"
       id="rect6" />
  </defs>
  <g
     inkscape:label="back"
     inkscape:groupmode="layer"
     id="layer1"
     style="display:inline"
     transform="translate(6.6145848,6.6145853)">
    <rect
       style="fill:#000000;fill-opacity:0;stroke:#ffffff;stroke-width:9.26042;stroke-dasharray:none;stroke-opacity:1"
       id="rect1"
       width="198.4375"
       height="277.8125"
       x="0"
       y="2.3925306e-14"
       rx="14.552083"
       ry="14.552083"
       inkscape:label="rect1" />
  </g>
  <g
     inkscape:groupmode="layer"
     id="layer2"
     inkscape:label="oval"
     transform="translate(6.0900241,6.2898878)">
    <ellipse
       style="fill:none;fill-opacity:1;stroke:#ffffff;stroke-width:2.29032;stroke-dasharray:none;stroke-opacity:1"
       id="path1"
       ry="134.06825"
       rx="89.691925"
       cy="64.941612"
       cx="153.7552"
       transform="matrix(0.84652427,0.53235013,-0.46833146,0.88355285,0,0)" />
  </g>
  <g
     inkscape:groupmode="layer"
     id="layer3"
     inkscape:label="text"
     transform="translate(7.2641375,14.764493)">
    <path
       d="m 326.89062,637.43812 q -20.8125,0 -34.125,-8.8125 -15.46875,-10.3125 -15.75,-30.09375 -0.46875,-27.65625 18.1875,-39.65625 -13.59375,-10.78125 -13.59375,-27.09375 0,-18.46875 14.0625,-30.65625 13.40625,-11.625 32.34375,-11.8125 22.40625,-0.1875 33.5625,11.90625 9.5625,10.5 9.5625,28.6875 0,10.21875 -3.65625,16.40625 -3.28125,5.53125 -10.96875,10.03125 11.4375,6.375 16.40625,14.8125 5.71875,9.375 5.71875,24.65625 0,20.0625 -15.65625,31.40625 -14.15625,10.21875 -36.09375,10.21875 z m 0.84375,-125.0625 q -20.53125,0 -20.34375,19.3125 0.0937,9.65625 17.71875,14.15625 9.84375,-2.71875 13.59375,-4.96875 6.65625,-4.03125 6.65625,-10.96875 0,-10.5 -4.5,-14.34375 -3.75,-3.1875 -13.125,-3.1875 z m -1.40625,56.8125 q -13.5,5.90625 -17.8125,10.40625 -6.28125,6.28125 -5.90625,17.90625 0.28125,9.09375 8.8125,13.6875 6.65625,3.5625 15.46875,3.5625 14.71875,0 20.25,-6.1875 4.3125,-4.875 4.3125,-15.5625 0,-9.65625 -7.59375,-15.65625 -5.71875,-4.5 -17.53125,-8.15625 z"
       id="text1"
       style="font-weight:bold;font-size:192px;font-family:'Comic Sans MS';-inkscape-font-specification:'Comic Sans MS, Bold';white-space:pre;fill:#ffffff;stroke:#ffffff;stroke-width:0"
       transform="matrix(0.67699306,0,0,0.74484187,-123.1143,-287.33317)"
       aria-label="8" />
    <path
       d="m 326.89062,637.43812 q -20.8125,0 -34.125,-8.8125 -15.46875,-10.3125 -15.75,-30.09375 -0.46875,-27.65625 18.1875,-39.65625 -13.59375,-10.78125 -13.59375,-27.09375 0,-18.46875 14.0625,-30.65625 13.40625,-11.625 32.34375,-11.8125 22.40625,-0.1875 33.5625,11.90625 9.5625,10.5 9.5625,28.6875 0,10.21875 -3.65625,16.40625 -3.28125,5.53125 -10.96875,10.03125 11.4375,6.375 16.40625,14.8125 5.71875,9.375 5.71875,24.65625 0,20.0625 -15.65625,31.40625 -14.15625,10.21875 -36.09375,10.21875 z m 0.84375,-125.0625 q -20.53125,0 -20.34375,19.3125 0.0937,9.65625 17.71875,14.15625 9.84375,-2.71875 13.59375,-4.96875 6.65625,-4.03125 6.65625,-10.96875 0,-10.5 -4.5,-14.34375 -3.75,-3.1875 -13.125,-3.1875 z m -1.40625,56.8125 q -13.5,5.90625 -17.8125,10.40625 -6.28125,6.28125 -5.90625,17.90625 0.28125,9.09375 8.8125,13.6875 6.65625,3.5625 15.46875,3.5625 14.71875,0 20.25,-6.1875 4.3125,-4.875 4.3125,-15.5625 0,-9.65625 -7.59375,-15.65625 -5.71875,-4.5 -17.53125,-8.15625 z"
       id="text1-1"
       style="font-weight:bold;font-size:192px;font-family:'Comic Sans MS';-inkscape-font-specification:'Comic Sans MS, Bold';white-space:pre;fill:#ffffff;stroke:#ffffff;stroke-width:0"
       transform="matrix(0.22379556,0,0,0.24414677,-49.256645,-114.84606)"
       aria-label="8" />
    <path
       d="m 326.89062,637.43812 q -20.8125,0 -34.125,-8.8125 -15.46875,-10.3125 -15.75,-30.09375 -0.46875,-27.65625 18.1875,-39.65625 -13.59375,-10.78125 -13.59375,-27.09375 0,-18.46875 14.0625,-30.65625 13.40625,-11.625 32.34375,-11.8125 22.40625,-0.1875 33.5625,11.90625 9.5625,10.5 9.5625,28.6875 0,10.21875 -3.65625,16.40625 -3.28125,5.53125 -10.96875,10.03125 11.4375,6.375 16.40625,14.8125 5.71875,9.375 5.71875,24.65625 0,20.0625 -15.65625,31.40625 -14.15625,10.21875 -36.09375,10.21875 z m 0.84375,-125.0625 q -20.53125,0 -20.34375,19.3125 0.0937,9.65625 17.71875,14.15625 9.84375,-2.71875 13.59375,-4.96875 6.65625,-4.03125 6.65625,-10.96875 0,-10.5 -4.5,-14.34375 -3.75,-3.1875 -13.125,-3.1875 z m -1.40625,56.8125 q -13.5,5.90625 -17.8125,10.40625 -6.28125,6.28125 -5.90625,17.90625 0.28125,9.09375 8.8125,13.6875 6.65625,3.5625 15.46875,3.5625 14.71875,0 20.25,-6.1875 4.3125,-4.875 4.3125,-15.5625 0,-9.65625 -7.59375,-15.65625 -5.71875,-4.5 -17.53125,-8.15625 z"
       id="text6"
       style="font-weight:bold;font-size:192px;font-family:'Comic Sans MS';-inkscape-font-specification:'Comic Sans MS, Bold';white-space:pre;fill:#ffffff;stroke:#ffffff;stroke-width:0"
       transform="matrix(-0.22379556,0,0,-0.24414677,246.34988,378.76401)"
       aria-label="8" />
  </g>
</svg>
